HIERARCHY
ROOT Hips
{
 OFFSET 0.000000 0.000000 0.000000
 CHANNELS 6 Xposition Yposition Zposition Yrotation Xrotation Zrotation
 JOINT Chest
 {
  OFFSET 0.000000 9.581000 -0.001100
  CHANNELS 3 Yrotation Xrotation Zrotation
  JOINT Chest2
  {
   OFFSET 0.000000 9.561100 0.002200
   CHANNELS 3 Yrotation Xrotation Zrotation
   JOINT Chest3
   {
    OFFSET 0.000000 9.521100 0.000000
    CHANNELS 3 Yrotation Xrotation Zrotation
    JOINT Chest4
    {
     OFFSET 0.000000 9.511400 0.000000
     CHANNELS 3 Yrotation Xrotation Zrotation
     JOINT Neck
     {
      OFFSET 0.000000 14.375100 0.000000
      CHANNELS 3 Yrotation Xrotation Zrotation
      JOINT Head
      {
       OFFSET 0.000000 8.901200 0.004600
       CHANNELS 3 Yrotation Xrotation Zrotation
       End Site
       {
        OFFSET 0.000000 16.962200 0.002400
       }
      }
     }
     JOINT RightCollar
     {
      OFFSET -2.920100 9.518800 0.000000
      CHANNELS 3 Yrotation Xrotation Zrotation
      JOINT RightShoulder
      {
       OFFSET -13.664500 0.000000 0.000000
       CHANNELS 3 Yrotation Xrotation Zrotation
       JOINT RightElbow
       {
        OFFSET 0.000000 -29.999200 0.000000
        CHANNELS 3 Yrotation Xrotation Zrotation
        JOINT RightWrist
        {
         OFFSET 0.000000 -24.253600 0.000000
         CHANNELS 3 Yrotation Xrotation Zrotation
         End Site
         {
          OFFSET 0.000000 -17.918900 0.000000
         }
        }
       }
      }
     }
     JOINT LeftCollar
     {
      OFFSET 2.920100 9.518800 0.000000
      CHANNELS 3 Yrotation Xrotation Zrotation
      JOINT LeftShoulder
      {
       OFFSET 13.664500 0.000000 0.000000
       CHANNELS 3 Yrotation Xrotation Zrotation
       JOINT LeftElbow
       {
        OFFSET 0.000000 -29.999200 0.000000
        CHANNELS 3 Yrotation Xrotation Zrotation
        JOINT LeftWrist
        {
         OFFSET 0.000000 -24.253600 0.000000
         CHANNELS 3 Yrotation Xrotation Zrotation
         End Site
         {
          OFFSET 0.000000 -17.918900 0.000000
         }
        }
       }
      }
     }
    }
   }
  }
 }
 JOINT RightHip
 {
  OFFSET -7.797300 0.005300 0.000500
  CHANNELS 3 Yrotation Xrotation Zrotation
  JOINT RightKnee
  {
   OFFSET 0.000000 -40.663400 -0.000500
   CHANNELS 3 Yrotation Xrotation Zrotation
   JOINT RightAnkle
   {
    OFFSET 0.000000 -39.523700 -0.000900
    CHANNELS 3 Yrotation Xrotation Zrotation
    JOINT RightToe
    {
     OFFSET 0.000000 -6.418000 14.485300
     CHANNELS 3 Yrotation Xrotation Zrotation
     End Site
     {
      OFFSET 0.000000 -1.465200 6.326400
     }
    }
   }
  }
 }
 JOINT LeftHip
 {
  OFFSET 7.797300 0.005300 0.000500
  CHANNELS 3 Yrotation Xrotation Zrotation
  JOINT LeftKnee
  {
   OFFSET 0.000000 -40.663400 -0.000500
   CHANNELS 3 Yrotation Xrotation Zrotation
   JOINT LeftAnkle
   {
    OFFSET 0.000000 -39.523700 -0.000900
    CHANNELS 3 Yrotation Xrotation Zrotation
    JOINT LeftToe
    {
     OFFSET 0.000000 -6.418000 14.485300
     CHANNELS 3 Yrotation Xrotation Zrotation
     End Site
     {
      OFFSET 0.000000 -1.465200 6.326400
     }
    }
   }
  }
 }
}
MOTION
Frames: 12
Frame Time: 0.008333
-23.580715 126.287040 54.073843 177.906784 -25.511789 -3.527318 -2.202656 21.420915 2.178463 -0.341064 2.884247 0.331050 -0.544231 4.706699 0.542629 -1.913086 18.206069 1.871393 8.936158 16.840943 -7.381159 11.864787 -7.225714 -10.490841 -0.381564 -4.511134 -0.767697 11.292022 -12.190841 -4.134412 -111.508034 -55.004242 149.525464 -5.747061 -16.579201 -34.011249 -10.917746 -4.636801 -0.431616 -16.701634 -17.549882 9.890955 159.811669 -74.111013 177.139681 -27.560075 -16.578673 62.879557 -8.573178 -55.937997 6.959808 -10.773867 71.328188 -12.553633 16.603322 12.282446 4.470553 -0.001990 -0.001106 -0.000882 -10.406099 -56.228206 0.636262 36.543198 64.842589 26.918696 0.382285 37.212289 4.895704 0.014981 -0.016514 0.006636
-23.581928 126.287607 54.072888 177.903405 -25.522457 -3.520667 -2.202832 21.426704 2.165804 -0.339699 2.887535 0.335560 -0.544997 4.702156 0.538168 -1.912288 18.208591 1.865791 8.936735 16.834747 -7.371235 11.829922 -7.283844 -10.493537 -0.383946 -4.512688 -0.757223 11.288730 -12.204633 -4.146301 -111.523113 -55.012045 149.520857 -5.724300 -16.606446 -34.045100 -10.933583 -4.663687 -0.436939 -16.691110 -17.527819 9.894581 159.774017 -74.115039 177.167400 -27.557027 -16.577648 62.852457 -8.558961 -55.927757 6.940227 -10.761811 71.335456 -12.539487 16.615444 12.271386 4.468582 -0.000145 -0.001168 -0.000064 -10.406502 -56.167885 0.591002 36.395446 64.841105 26.748434 0.543952 37.080182 5.082124 0.005597 -0.002200 0.002480
-23.581329 126.287518 54.073810 177.903717 -25.522701 -3.525874 -2.200964 21.423751 2.157518 -0.337802 2.888154 0.340849 -0.544910 4.701794 0.537196 -1.912446 18.210793 1.863045 8.922093 16.801154 -7.370451 11.811123 -7.323469 -10.482981 -0.388685 -4.534726 -0.748947 11.281132 -12.205576 -4.161208 -111.516538 -55.002250 149.489876 -5.738166 -16.607065 -34.047868 -10.942996 -4.674621 -0.431465 -16.697218 -17.531337 9.890201 159.778560 -74.133096 177.165588 -27.555366 -16.573618 62.840917 -8.566205 -55.926105 6.943092 -10.758690 71.337317 -12.532564 16.630903 12.268567 4.465315 0.001392 -0.002333 0.000617 -10.426254 -56.146453 0.585907 36.295515 64.862654 26.631179 0.674957 36.970660 5.242840 0.009617 -0.003527 0.004261
-23.580624 126.287443 54.074906 177.901689 -25.523696 -3.529940 -2.197276 21.422670 2.157301 -0.340062 2.887252 0.333714 -0.543449 4.704852 0.540358 -1.908779 18.209837 1.864203 8.885115 16.737193 -7.376935 11.815117 -7.333764 -10.464172 -0.403752 -4.561956 -0.749104 11.288011 -12.187069 -4.153079 -111.541798 -54.998695 149.490508 -5.758826 -16.597245 -34.038836 -10.954305 -4.685234 -0.428853 -16.716432 -17.567814 9.877107 159.772626 -74.185087 177.185582 -27.556597 -16.571049 62.826565 -8.571541 -55.923841 6.946146 -10.763044 71.335533 -12.533937 16.655429 12.269973 4.463748 0.003372 -0.003383 0.001494 -10.455091 -56.130495 0.587164 36.224377 64.883386 26.541640 0.807459 36.867383 5.390372 0.011353 -0.004367 0.005030
-23.579632 126.287491 54.075999 177.903563 -25.526542 -3.536935 -2.195159 21.423803 2.157816 -0.341135 2.888476 0.338767 -0.543717 4.702451 0.535240 -1.906529 18.212457 1.868417 8.876721 16.722293 -7.376733 11.786578 -7.384010 -10.452243 -0.410005 -4.568350 -0.754012 11.277085 -12.191757 -4.155646 -111.527511 -54.991441 149.468306 -5.766305 -16.593134 -34.032334 -10.960371 -4.690708 -0.429318 -16.725033 -17.585120 9.872005 159.777316 -74.210673 177.189607 -27.509198 -16.585381 62.785910 -8.583126 -55.918797 6.953512 -10.769371 71.331559 -12.539407 16.671644 12.273705 4.464217 0.003283 -0.004928 0.001455 -10.480300 -56.120296 0.593154 36.203063 64.892453 26.508698 0.897427 36.788222 5.502144 0.020671 -0.011160 0.009157
-23.579128 126.287548 54.077183 177.901814 -25.530732 -3.539368 -2.191315 21.427893 2.158446 -0.338821 2.887739 0.336754 -0.543769 4.703087 0.534049 -1.907236 18.214142 1.863281 8.871462 16.705153 -7.366621 11.777919 -7.402543 -10.444053 -0.414023 -4.575162 -0.752370 11.261360 -12.199538 -4.155127 -111.522642 -54.991238 149.437193 -5.786740 -16.590999 -34.009527 -10.967142 -4.696186 -0.421272 -16.726613 -17.602416 9.867052 159.772882 -74.234765 177.196763 -27.494677 -16.588734 62.787152 -8.591786 -55.912901 6.960726 -10.765518 71.328627 -12.537295 16.664599 12.277538 4.460881 0.000799 -0.005496 0.000354 -10.501707 -56.112170 0.596794 36.194238 64.900965 26.487611 0.992353 36.715802 5.596514 0.027291 -0.014833 0.012089
-23.578981 126.287922 54.077837 177.897701 -25.540216 -3.538781 -2.186704 21.437755 2.155520 -0.332005 2.895065 0.320051 -0.540255 4.710369 0.531161 -1.905744 18.210095 1.870207 8.859407 16.670117 -7.352550 11.755142 -7.455595 -10.415621 -0.416846 -4.591974 -0.743863 11.225379 -12.208476 -4.157084 -111.470792 -54.976721 149.404147 -5.780648 -16.584046 -34.009455 -10.975230 -4.729150 -0.414208 -16.722785 -17.597376 9.866319 159.699492 -74.245344 177.266147 -27.492014 -16.586545 62.791096 -8.599374 -55.901681 6.967457 -10.761790 71.323815 -12.539370 16.666118 12.284197 4.457833 -0.000195 -0.005098 -0.000087 -10.542572 -56.104009 0.606045 36.213207 64.911344 26.484882 1.105632 36.645979 5.684707 0.023081 -0.013851 0.010224
-23.579277 126.288082 54.079040 177.894661 -25.547245 -3.536532 -2.179278 21.446124 2.144329 -0.332168 2.896130 0.325997 -0.536939 4.717364 0.525508 -1.895001 18.218424 1.864831 8.844753 16.633961 -7.335482 11.728260 -7.508255 -10.381836 -0.429472 -4.619733 -0.734141 11.217596 -12.202663 -4.144377 -111.471711 -54.977024 149.399141 -5.774874 -16.568310 -34.010676 -10.989263 -4.751107 -0.392102 -16.719226 -17.606579 9.861187 159.649258 -74.257070 177.308529 -27.487181 -16.594010 62.807054 -8.607742 -55.891862 6.974905 -10.770736 71.314660 -12.552275 16.652728 12.292576 4.448714 -0.001914 -0.005151 -0.000848 -10.634414 -56.112136 0.618891 36.435621 64.883407 26.690497 1.143682 36.592364 5.724285 0.011435 -0.012137 0.005066
-23.578832 126.287939 54.081164 177.893063 -25.549272 -3.539896 -2.170536 21.452930 2.133188 -0.331827 2.894393 0.338189 -0.539017 4.721313 0.523565 -1.884003 18.247440 1.842674 8.824851 16.571297 -7.299938 11.722453 -7.534804 -10.361479 -0.440479 -4.661629 -0.707217 11.216484 -12.202559 -4.147557 -111.486629 -54.978765 149.391324 -5.774275 -16.548944 -33.999542 -10.999041 -4.789682 -0.356073 -16.719814 -17.602311 9.859977 159.602140 -74.255115 177.352273 -27.491894 -16.594225 62.812633 -8.626610 -55.884732 6.989572 -10.787420 71.297230 -12.576124 16.688154 12.303319 4.451868 0.000449 -0.005434 0.000199 -10.690946 -56.122566 0.623730 36.631865 64.852103 26.895690 1.124831 36.554524 5.729714 0.012101 -0.010034 0.005361
-23.578129 126.288426 54.082071 177.888824 -25.559823 -3.543478 -2.172804 21.465762 2.129513 -0.335342 2.902751 0.329541 -0.526080 4.713375 0.535361 -1.895232 18.266514 1.831182 8.819398 16.539738 -7.285911 11.729483 -7.548862 -10.357712 -0.428816 -4.690163 -0.704882 11.232054 -12.200574 -4.152452 -111.521158 -54.989139 149.388200 -5.777409 -16.537998 -33.975972 -10.987545 -4.822368 -0.345189 -16.708173 -17.614067 9.848184 159.549981 -74.272622 177.393237 -27.495275 -16.597062 62.815648 -8.644581 -55.868859 7.006534 -10.792046 71.285281 -12.588524 16.703869 12.308596 4.452506 0.000906 -0.004592 0.000401 -10.703736 -56.116408 0.626575 36.701632 64.839901 26.975041 1.115502 36.527374 5.745232 0.018496 -0.009241 0.008194
-23.577741 126.289587 54.081585 177.874356 -25.579597 -3.540161 -2.171867 21.488558 2.121713 -0.327780 2.902674 0.331690 -0.530169 4.722406 0.530081 -1.891179 18.266136 1.832294 8.802088 16.518132 -7.276871 11.742588 -7.562744 -10.355434 -0.424167 -4.714117 -0.711643 11.257332 -12.195809 -4.149337 -111.560231 -55.006481 149.385936 -5.763568 -16.518162 -33.978490 -10.972375 -4.863336 -0.347661 -16.703000 -17.602111 9.839551 159.495961 -74.282529 177.439163 -27.508410 -16.612337 62.846853 -8.645428 -55.846024 7.016750 -10.810652 71.274302 -12.609696 16.700288 12.315537 4.447161 -0.000394 -0.004931 -0.000175 -10.714542 -56.112253 0.599073 36.878898 64.805381 27.196837 1.052905 36.515857 5.703744 0.022512 -0.010146 0.009973
-23.577510 126.289858 54.082982 177.868206 -25.585462 -3.539229 -2.177942 21.498168 2.114652 -0.323163 2.902305 0.333452 -0.538799 4.732040 0.526854 -1.883885 18.265423 1.831213 8.789693 16.498007 -7.271979 11.683691 -7.648742 -10.318788 -0.409851 -4.739060 -0.726772 11.284177 -12.191085 -4.142936 -111.603051 -55.023613 149.381849 -5.779977 -16.522788 -33.975077 -10.961449 -4.878982 -0.344574 -16.693068 -17.628549 9.822879 159.466003 -74.306965 177.460775 -27.512115 -16.614908 62.841091 -8.646569 -55.839007 7.020628 -10.830095 71.264381 -12.624675 16.702195 12.324694 4.440851 0.001240 -0.005779 0.000550 -10.713822 -56.117923 0.557606 36.996346 64.778729 27.376246 0.997977 36.508249 5.639237 0.025684 -0.003825 0.011379
